<svg width="150" height="58" viewBox="0 0 150 58" fill="none" xmlns="http://www.w3.org/2000/svg">
<path d="M146 3C146 4.65686 144.657 6 143 6C141.343 6 140 4.65686 140 3C140 1.34315 141.343 0 143 0C144.657 0 146 1.34315 146 3Z" fill="#7832FF"/>
<path d="M140 8H146V20L149.5 33L146 45V58H140V45L143.5 33L140 20V8Z" fill="black"/>
<path d="M107 23C107 31.7568 110.916 37.5946 110.916 37.5946L120.045 41L129.174 37.5946C129.174 37.5946 133 31.7568 133 23" stroke="black" stroke-width="6"/>
<path d="M122 50C122 51.1046 121.105 52 120 52C118.895 52 118 51.1046 118 50C118 48.8954 118.895 48 120 48C121.105 48 122 48.8954 122 50Z" fill="#7832FF"/>
<path d="M122 30C122 31.1046 121.105 32 120 32C118.895 32 118 31.1046 118 30C118 28.8954 118.895 28 120 28C121.105 28 122 28.8954 122 30Z" fill="#7832FF"/>
<rect x="104" y="8" width="6" height="50" fill="black"/>
<rect x="130" y="8" width="6" height="50" fill="black"/>
<path d="M88.6842 55L88.6842 57.5H88.6842V55ZM86.5 34L84.1765 33.0773L83.631 34.4509L84.5716 35.591L86.5 34ZM94.75 44L92.8216 45.591L92.829 45.6L92.8366 45.609L94.75 44ZM76.25 22L74.3366 23.609L74.3488 23.6236L74.3613 23.6379L76.25 22ZM82.5 29.2069L80.6113 30.8448L81.4747 31.8404L82.7839 31.6907L82.5 29.2069ZM88.6842 28.5L91.0077 29.4227L92.5488 25.542L88.4002 26.0162L88.6842 28.5ZM88.6842 13.5H100.5V8.5H88.6842V13.5ZM88.6842 8.5H81.3723V13.5H88.6842V8.5ZM88.6842 52.5L72.5 52.5L72.5 57.5L88.6842 57.5L88.6842 52.5ZM88.6842 57.5H89.6277V52.5H88.6842V57.5ZM84.5716 35.591L92.8216 45.591L96.6784 42.409L88.4284 32.409L84.5716 35.591ZM74.3613 23.6379L80.6113 30.8448L84.3887 27.569L78.1387 20.3621L74.3613 23.6379ZM82.7839 31.6907L88.9681 30.9838L88.4002 26.0162L82.2161 26.7231L82.7839 31.6907ZM86.3607 27.5773L84.1765 33.0773L88.8235 34.9227L91.0077 29.4227L86.3607 27.5773ZM89.6277 57.5C97.4407 57.5 101.692 48.3708 96.6634 42.391L92.8366 45.609C95.13 48.3363 93.1911 52.5 89.6277 52.5V57.5ZM81.3723 8.5C73.5593 8.5 69.3081 17.6292 74.3366 23.609L78.1634 20.391C75.87 17.6637 77.8089 13.5 81.3723 13.5V8.5Z" fill="black"/>
<path d="M84.5 18.0574C84.5 19.162 83.6046 20.0574 82.5 20.0574C81.3954 20.0574 80.5 19.162 80.5 18.0574C80.5 16.9529 81.3954 16.0574 82.5 16.0574C83.6046 16.0574 84.5 16.9529 84.5 18.0574Z" fill="#7832FF"/>
<path d="M86.5 48.4483C86.5 47.3437 87.3954 46.4483 88.5 46.4483C89.6046 46.4483 90.5 47.3437 90.5 48.4483C90.5 49.5529 89.6046 50.4483 88.5 50.4483C87.3954 50.4483 86.5 49.5529 86.5 48.4483Z" fill="#7832FF"/>
<path d="M36 8H42V25L45.5 36L42 47V47C42 49.7614 44.238 52 46.9994 52C48.6763 52 50.4997 52 52 52C53.5003 52 55.3237 52 57.0006 52C59.762 52 62 49.7614 62 47V47L65.5 36L62 25V8H68V25L71.5 36L68 47V47C68 53.0751 63.0751 58 57 58H47C40.9249 58 36 53.0751 36 47V47L39.5 36L36 25V8Z" fill="black"/>
<path d="M60 48C60 49.1046 59.1046 50 58 50C56.8954 50 56 49.1046 56 48C56 46.8954 56.8954 46 58 46C59.1046 46 60 46.8954 60 48Z" fill="#7832FF"/>
<path d="M49 48C49 49.1046 48.1046 50 47 50C45.8954 50 45 49.1046 45 48C45 46.8954 45.8954 46 47 46C48.1046 46 49 46.8954 49 48Z" fill="#7832FF"/>
<path d="M6 8H0V24.5L5 35.75L0 46.875V58H6V46.875L11 35.75L6 24.5V13.5L11 16L16 18.5L21 16L26 13.5V24.625L29.5 35.75L26 46.875V58H32V46.875L35.5 35.75L32 24.625V8H26L16 13L6 8Z" fill="black"/>
<path d="M12 20C12 21.1046 11.1046 22 10 22C8.89543 22 8 21.1046 8 20C8 18.8954 8.89543 18 10 18C11.1046 18 12 18.8954 12 20Z" fill="#7832FF"/>
<path d="M24 20C24 21.1046 23.1046 22 22 22C20.8954 22 20 21.1046 20 20C20 18.8954 20.8954 18 22 18C23.1046 18 24 18.8954 24 20Z" fill="#7832FF"/>
</svg>
